<svg width="106" height="47" viewBox="0 0 106 47" fill="none" xmlns="http://www.w3.org/2000/svg">
<mask id="mask0" mask-type="alpha" maskUnits="userSpaceOnUse" x="87" y="0" width="19" height="47">
<path fill-rule="evenodd" clip-rule="evenodd" d="M105.495 0.127037V46.3331H87.9232V0.127037H105.495V0.127037Z" fill="white"/>
</mask>
<g mask="url(#mask0)">
<path fill-rule="evenodd" clip-rule="evenodd" d="M96.6554 28.8406C101.517 28.8406 105.496 32.8009 105.496 37.642C105.496 42.4824 101.517 46.3334 96.6554 46.3334C91.7912 46.3334 87.9232 42.4824 87.9232 37.642C87.9232 32.8009 91.7912 28.8406 96.6554 28.8406ZM87.9232 8.92774C87.9232 4.08813 91.7912 0.127037 96.6554 0.127037C101.517 0.127037 105.496 4.08813 105.496 8.92774C105.496 13.7688 101.517 17.6191 96.6554 17.6191C91.7912 17.6191 87.9232 13.7688 87.9232 8.92774Z" fill="url(#paint0_linear)"/>
</g>
<path fill-rule="evenodd" clip-rule="evenodd" d="M16.3363 35.9764C23.6612 35.9764 28.9767 30.2339 28.9767 22.8769C28.9767 15.5857 23.6612 9.8425 16.3363 9.8425H10.113V35.9764H16.3363ZM1.52588e-05 1.58332C1.52588e-05 0.937551 0.518129 0.357536 1.16688 0.357536H16.9849C29.4946 0.357536 39.7381 10.4882 39.7381 22.8769C39.7381 35.3956 29.4946 45.5263 16.9849 45.5263H1.16688C0.518129 45.5263 1.52588e-05 44.9455 1.52588e-05 44.2997V1.58332Z" fill="url(#paint1_linear)"/>
<path fill-rule="evenodd" clip-rule="evenodd" d="M66.8736 -3.8147e-05C73.356 -3.8147e-05 78.1533 2.00009 82.5618 6.00108C83.1445 6.51681 83.1445 7.29115 82.6249 7.80762L77.5699 13.0337C77.1149 13.4859 76.4016 13.4859 75.9488 13.0337C73.5497 10.905 70.3735 9.74347 67.198 9.74347C59.8717 9.74347 54.4909 15.8089 54.4909 23.0358C54.4909 30.1991 59.9362 36.1352 67.2618 36.1352C70.3089 36.1352 73.615 35.038 75.9488 33.0379C76.4016 32.6507 77.2455 32.6507 77.6337 33.1022L82.6902 38.4575C83.1445 38.9097 83.0799 39.7483 82.6249 40.1998C78.2172 44.4586 72.6426 46.4595 66.8736 46.4595C53.9074 46.4595 43.4717 36.1995 43.4717 23.2944C43.4717 10.3885 53.9074 -3.8147e-05 66.8736 -3.8147e-05Z" fill="url(#paint2_linear)"/>
<defs>
<linearGradient id="paint0_linear" x1="96.7096" y1="0.127037" x2="96.7096" y2="46.3333" gradientUnits="userSpaceOnUse">
<stop stop-color="#0172F1"/>
<stop offset="1" stop-color="#019CF7"/>
</linearGradient>
<linearGradient id="paint1_linear" x1="19.8691" y1="0.357536" x2="19.8691" y2="45.5263" gradientUnits="userSpaceOnUse">
<stop stop-color="#0171F1"/>
<stop offset="1" stop-color="#01A7F9"/>
</linearGradient>
<linearGradient id="paint2_linear" x1="63.2393" y1="-3.8147e-05" x2="63.2393" y2="46.4595" gradientUnits="userSpaceOnUse">
<stop stop-color="#0171F1"/>
<stop offset="1" stop-color="#01A7F9"/>
</linearGradient>
</defs>
</svg>
