<svg width="129" height="58" viewBox="0 0 129 58" fill="none" xmlns="http://www.w3.org/2000/svg">
<path d="M0 9.07637H128.918V27.3155C128.918 43.8841 115.486 57.3155 98.9179 57.3155H0V9.07637Z" fill="url(#paint0_linear)"/>
<mask id="mask0" mask-type="alpha" maskUnits="userSpaceOnUse" x="0" y="9" width="129" height="49">
<path d="M0 9.07637H128.918V27.3155C128.918 43.8841 115.486 57.3155 98.9179 57.3155H0V9.07637Z" fill="url(#paint1_linear)"/>
</mask>
<g mask="url(#mask0)">
<ellipse cx="64.711" cy="4.95841" rx="65.7195" ry="23.4473" fill="#6BB161" fill-opacity="0.8"/>
<path d="M32.6104 32.4163L30.3817 43.4143C29.9125 45.5527 28.9741 46.4081 26.6281 46.4081H24.1061L23.0504 51.6627H44.4578L45.5135 46.4081H42.5223C40.1763 46.4081 39.5312 45.5527 40.0004 43.4143L45.2789 17.3859C45.7481 15.1863 46.6865 14.392 49.0325 14.392H52.0824L53.0794 9.07632H31.672L30.6163 14.392H33.1383C35.4843 14.392 36.1294 15.1863 35.6602 17.3859L33.7834 26.6119H18.2997L20.1765 17.3859C20.6457 15.1252 21.5841 14.392 23.9302 14.392H26.4521L27.5078 9.07632H6.10044L5.04473 14.392H8.09455C10.4406 14.392 11.0857 15.1863 10.6165 17.3859L5.33798 43.4143C4.86878 45.5527 3.93037 46.4081 1.58435 46.4081H-1.46547L-2.52118 51.6627H18.8862L19.9419 46.4081H17.42C15.0739 46.4081 14.4288 45.5527 14.898 43.4143L17.1267 32.4163H32.6104Z" fill="white"/>
<path d="M83.6949 26.001L85.2199 18.5468H89.0321C92.6685 18.5468 93.7828 19.4633 93.3136 22.0906C92.7858 24.779 91.0849 26.001 88.0351 26.001H83.6949ZM82.9911 29.4226H86.8034C89.4427 29.4226 89.8532 30.0946 89.384 33.1496L88.6802 37.6099C88.1524 40.7871 89.7946 42.559 93.255 42.559C96.9499 42.559 99.0614 40.6038 99.8825 36.449L100.352 34.1883H97.4778L97.0086 36.449C96.6567 38.0987 96.1875 38.9541 95.425 38.9541C94.252 38.9541 94.7212 37.3655 94.8385 36.449L95.6596 32.4775C96.1288 30.2168 95.3664 28.9949 92.9617 28.0173C96.7153 27.1008 98.944 25.0234 99.5892 21.7851C100.469 17.5692 98.2989 15.1864 93.6069 15.1864H75.9531L75.3079 18.4857H77.1847C78.651 18.4857 79.0616 18.9745 78.7683 20.3798L75.4839 36.6934C75.1906 38.0376 74.6041 38.5875 73.1379 38.5875H71.261L70.6159 41.8869H84.3987L85.0439 38.5875H83.1671C81.7008 38.5875 81.2903 38.0987 81.5835 36.6934C81.5249 36.6323 82.9911 29.4226 82.9911 29.4226ZM53.314 28.3839C54.663 21.724 58.0647 17.7525 62.5808 17.7525C66.8623 17.7525 68.5631 21.7851 67.2142 28.6894C65.8652 35.4103 62.5221 39.1985 58.0647 39.1985C53.6659 39.1985 51.9651 35.227 53.314 28.3839ZM46.7452 28.5672C44.9856 37.2433 49.0912 42.6812 57.3022 42.6812C66.0412 42.6812 72.1995 37.3044 74.0176 28.1395C75.6598 19.891 71.3197 14.2699 63.2846 14.2699C54.8976 14.2699 48.5047 19.7688 46.7452 28.5672Z" fill="white"/>
<path d="M118.005 31.805C117.301 35.4099 114.662 38.6482 111.202 38.6482C109.09 38.6482 108.386 37.4873 108.856 35.1044C109.384 32.4771 111.143 31.5606 112.785 30.8274L118.768 28.1391L118.005 31.805ZM126.568 32.2327L126.158 34.3712C125.454 37.8539 124.691 38.6482 123.929 38.6482C123.166 38.6482 122.815 38.0372 123.049 36.8152L125.806 23.0678C126.744 18.3631 124.457 14.9416 117.595 14.9416C113.548 14.9416 107.038 16.1636 105.865 21.9069C105.395 24.2287 106.51 26.0617 108.738 26.0617C110.733 26.0617 112.492 25.2674 113.02 22.7623C113.489 20.4405 112.199 19.5851 110.205 19.8295C111.378 18.4853 113.9 17.9965 115.366 17.9965C118.064 17.9965 120.703 18.6686 119.999 22.2735C118.416 30.2165 104.105 24.9008 101.876 35.8376C100.879 40.9089 103.577 42.9863 107.565 42.9863C110.791 42.9863 114.252 41.9476 116.832 38.8315C116.656 41.8254 118.592 42.9863 121.172 42.9863C125.454 42.9863 128.328 40.359 129.559 34.0657L129.911 32.3549C129.853 32.2327 126.568 32.2327 126.568 32.2327Z" fill="white"/>
<path d="M107.742 49.9519C107.859 49.5242 108.094 48.791 108.387 47.8745C108.328 48.7299 108.269 49.402 108.269 49.9519H107.742ZM107.448 46.7136L105.806 51.7238H107.331L107.566 50.8073H108.094L108.035 51.7238H109.56V46.7136H107.448ZM104.985 46.7136L104.633 48.9743L104.164 46.7136H102.932L102.053 51.7238H103.284L103.695 49.4631L104.105 51.7238H105.454L106.334 46.7136H104.985ZM100.586 46.7136L99.7065 51.7238H101.231L102.111 46.7136H100.586ZM98.1229 47.6301C98.1816 47.6912 98.1816 47.8134 98.1816 47.9356L98.1229 48.18C98.0643 48.4244 98.0056 48.5466 97.947 48.5466C97.8883 48.6077 97.771 48.6077 97.5951 48.6077L97.771 47.5079C97.947 47.569 98.0643 47.6301 98.1229 47.6301ZM95.601 51.7238H97.1259L97.4778 49.4631C97.7124 49.4631 97.8297 49.5242 97.8297 49.5853C97.8883 49.6464 97.8883 49.8297 97.8297 50.0741L97.5364 51.7238H98.9441L99.1787 50.3796C99.2373 49.9519 99.296 49.7075 99.2373 49.6464C99.2373 49.5242 99.1786 49.4631 99.12 49.3409C99.0614 49.2187 98.8267 49.1576 98.5335 49.0965C98.8854 49.0965 99.12 48.9743 99.2373 48.8521C99.3546 48.7299 99.4719 48.4244 99.5306 48.0578C99.5892 47.6301 99.5892 47.3246 99.4719 47.1413C99.3546 46.958 99.1787 46.8358 98.9441 46.7747C98.7095 46.7136 98.2402 46.7136 97.5364 46.7136H96.4807L95.601 51.7238ZM93.255 49.9519C93.3723 49.5242 93.6069 48.791 93.9001 47.8745C93.8415 48.7299 93.7828 49.402 93.7828 49.9519H93.255ZM92.9617 46.7136L91.3195 51.7238H92.8444L93.079 50.8073H93.6069L93.5482 51.7238H95.0731V46.7136H92.9617ZM88.9735 46.7136L88.7975 47.6912H89.6773L88.9735 51.7238H90.4984L91.2022 47.6912H92.082L92.2579 46.7136H88.9735ZM86.4515 49.9519C86.5688 49.5242 86.8034 48.791 87.0967 47.8745C87.038 48.7299 86.9794 49.402 86.9794 49.9519H86.4515ZM86.1583 46.7136L84.5161 51.7238H86.041L86.2756 50.8073H86.8034L86.7448 51.7238H88.2697V46.7136H86.1583ZM84.8093 47.0191C84.9266 46.347 84.9266 45.8582 84.868 45.5527C84.8093 45.2472 84.5747 44.9417 84.2228 44.7584C83.8709 44.5751 83.343 44.453 82.6979 44.453C82.2287 44.453 81.8181 44.514 81.4076 44.6362C80.997 44.7584 80.7038 44.9417 80.4692 45.1861C80.2346 45.4305 80.0586 45.6749 80 45.9193C79.9413 46.1637 79.824 46.5303 79.7654 47.0802L79.4135 49.1576C79.2962 49.8908 79.2962 50.3796 79.3548 50.7462C79.4135 51.1128 79.6481 51.3572 80 51.5405C80.3519 51.7238 80.8797 51.846 81.5249 51.846C82.1114 51.846 82.6392 51.7238 83.1084 51.4794C83.5776 51.235 83.8709 50.9906 84.0469 50.6851C84.2228 50.3796 84.3988 49.8297 84.5161 49.0965L84.5747 48.791H82.4046L82.2287 49.7075C82.17 50.0741 82.1114 50.3796 82.0527 50.4407C81.9941 50.5629 81.8768 50.624 81.7008 50.624C81.5249 50.624 81.4662 50.5629 81.4076 50.4407C81.3489 50.3185 81.4076 50.1352 81.4662 49.7686L82.0527 46.4692C82.1114 46.1026 82.17 45.8582 82.2287 45.736C82.2873 45.6138 82.4046 45.5527 82.5806 45.5527C82.7565 45.5527 82.8152 45.6138 82.8738 45.6749C82.9325 45.736 82.8738 45.9804 82.8152 46.347L82.5806 47.569H84.692L84.8093 47.0191ZM74.3695 49.9519C74.4868 49.5242 74.7214 48.791 75.0147 47.8745C74.956 48.7299 74.8974 49.402 74.8974 49.9519H74.3695ZM74.0763 46.7136L72.4341 51.7238H73.959L74.1936 50.8073H74.7214L74.6628 51.7238H76.1877V46.7136H74.0763ZM70.1467 46.7136L69.9708 47.6912H70.8505L70.1467 51.7238H71.6716L72.3754 47.6912H73.2552L73.4311 46.7136H70.1467ZM68.3285 46.7136L67.9766 48.9743L67.5074 46.7136H66.2758L65.4547 51.7238H66.6863L67.0969 49.4631L67.5074 51.7238H68.8564L69.6775 46.7136H68.3285ZM63.05 49.9519C63.1673 49.5242 63.4019 48.791 63.6952 47.8745C63.6365 48.7299 63.5779 49.402 63.5779 49.9519H63.05ZM62.7568 46.7136L61.1145 51.7238H62.6395L62.8741 50.8073H63.4019L63.3433 51.7238H64.8682V46.7136H62.7568ZM61.4078 46.4692C61.5251 45.9193 61.5251 45.4916 61.4078 45.2472C61.2905 45.0028 61.1146 44.8195 60.704 44.6362C60.3521 44.4529 59.8829 44.3918 59.2964 44.3918C58.7685 44.3918 58.358 44.4529 57.9474 44.5751C57.5369 44.6973 57.2436 44.9417 57.0677 45.1861C56.8331 45.4305 56.7158 45.8582 56.5985 46.4081C56.5398 46.7747 56.5398 47.0802 56.5985 47.3246C56.6571 47.569 56.7744 47.7523 56.9504 47.8745C57.1263 47.9967 57.4196 48.2411 57.8888 48.5466C58.358 48.8521 58.6512 49.0354 58.7685 49.2187C58.8858 49.402 58.8858 49.6464 58.8272 50.013C58.7685 50.1963 58.7099 50.3796 58.6512 50.4407C58.5926 50.5629 58.4753 50.5629 58.2993 50.5629C58.1234 50.5629 58.0647 50.5018 58.0061 50.4407C57.9474 50.3796 57.9474 50.1963 58.0061 49.9519L58.182 49.0965H56.1879L56.1293 49.5853C56.0706 50.1352 56.012 50.5629 56.1293 50.8073C56.1879 51.1128 56.4225 51.3572 56.7744 51.5405C57.1263 51.7238 57.5955 51.846 58.182 51.846C58.7099 51.846 59.1791 51.7849 59.5896 51.6016C60.0002 51.4183 60.2934 51.235 60.4694 50.9906C60.6454 50.7462 60.7626 50.3796 60.88 49.8908C60.9973 49.1576 60.9386 48.6688 60.7627 48.3633C60.5867 48.0578 60.0588 47.6301 59.1791 47.1413C58.8858 46.958 58.7099 46.8358 58.6512 46.7136C58.5926 46.5914 58.5926 46.4081 58.6512 46.1637C58.7099 45.9804 58.7099 45.8582 58.8272 45.736C58.9445 45.6138 59.0031 45.6138 59.1204 45.6138C59.2377 45.6138 59.2964 45.6749 59.355 45.736C59.4137 45.7971 59.4137 45.9804 59.355 46.2248L59.2964 46.7747H61.2905L61.4078 46.4692ZM50.4402 51.7238H53.0208L53.1967 50.7462H52.0824L52.2583 49.6464H53.1967L53.3727 48.6688H52.4929L52.6689 47.7523H53.666L53.8419 46.7747H51.3199L50.4402 51.7238ZM48.7393 47.6301C48.798 47.6301 48.798 47.6912 48.798 47.7523C48.798 47.8134 48.798 47.9356 48.7393 48.18L48.3874 50.1352C48.3288 50.5018 48.2701 50.6851 48.2115 50.7462C48.1528 50.8073 48.0355 50.8684 47.8009 50.8684L48.3288 47.569C48.5634 47.569 48.6807 47.569 48.7393 47.6301ZM46.2174 51.7238H48.0942C48.4461 51.7238 48.7393 51.7238 48.9153 51.6627C49.0912 51.6016 49.2672 51.5405 49.3845 51.4794C49.5018 51.4183 49.6191 51.2961 49.6777 51.1128C49.7364 50.9295 49.8537 50.6851 49.9123 50.1963L50.2056 48.4244C50.2642 47.9356 50.3229 47.6301 50.3229 47.4468C50.3229 47.2635 50.2642 47.1413 50.1469 47.0191C50.0296 46.8969 49.8537 46.7747 49.6191 46.7136C49.3845 46.6525 48.8566 46.6525 48.1528 46.6525H47.0385L46.2174 51.7238Z" fill="white"/>
</g>
<rect width="128.918" height="7.05939" fill="url(#paint2_linear)"/>
<defs>
<linearGradient id="paint0_linear" x1="122.575" y1="57.3155" x2="0" y2="57.3155" gradientUnits="userSpaceOnUse">
<stop stop-color="#3FA947"/>
<stop offset="1" stop-color="#05551C"/>
</linearGradient>
<linearGradient id="paint1_linear" x1="122.575" y1="57.3155" x2="0" y2="57.3155" gradientUnits="userSpaceOnUse">
<stop stop-color="#40AA48"/>
<stop offset="0.786458" stop-color="#05551C"/>
</linearGradient>
<linearGradient id="paint2_linear" x1="128.918" y1="3.52966" x2="-7.91788e-07" y2="3.52963" gradientUnits="userSpaceOnUse">
<stop stop-color="#EA1C24"/>
<stop offset="1" stop-color="#9E0B0F"/>
</linearGradient>
</defs>
</svg>
