<svg width="105" height="37" viewBox="0 0 105 37" fill="none" xmlns="http://www.w3.org/2000/svg">
<path fill-rule="evenodd" clip-rule="evenodd" d="M0.000183105 36.8323H104.955V31.7769H0.000183105V36.8323Z" fill="#3B9ECB"/>
<path fill-rule="evenodd" clip-rule="evenodd" d="M104.955 28.2197C104.955 27.316 103.243 28.5078 102.315 26.0852L94.7142 6.7688C92.6091 1.35352 92.6091 0 92.1455 0C91.6814 0 91.8598 0.574348 91.1106 2.37944C90.1116 4.79901 89.505 4.71696 89.505 5.33263C89.505 5.82493 90.3614 6.6047 90.3614 6.89158C90.3614 7.21978 89.7547 8.7374 85.4731 21.0389C84.5095 23.8298 83.3321 26.0044 82.4044 26.9075C81.4048 27.8915 80.0135 27.4819 80.0135 28.2197C80.0135 28.5479 80.1207 28.7114 80.4771 28.7114C81.7617 28.7114 82.9038 28.6306 84.0813 28.6306C86.5074 28.6306 87.3639 28.7114 88.1131 28.7114C88.506 28.7114 88.6845 28.7114 88.6845 28.261C88.6845 27.277 85.7229 28.261 85.7229 24.1586C85.7229 22.9679 86.1864 21.7779 87.1495 18.6187H95.0718L97.105 23.9531C97.3548 24.5682 97.7117 25.7995 97.7117 26.1691C97.7117 28.3838 95.2137 27.195 95.2137 28.2197C95.2137 28.5886 95.4281 28.7114 95.7845 28.7114C97.2482 28.7114 98.6394 28.6306 100.067 28.6306C101.494 28.6306 102.922 28.7114 104.349 28.7114C104.706 28.7114 104.955 28.6701 104.955 28.2197ZM94.7143 17.6389H87.5071L90.861 7.54799L94.7143 17.6389ZM84.0058 10.2538C84.2556 10.2538 84.3274 10.0897 84.3274 9.92564C84.3274 9.43334 84.113 8.44815 83.9705 7.66837L82.8284 0.943291C82.7924 0.697142 82.7565 0.164118 82.4355 0.164118C82.2217 0.164118 82.1504 0.328218 81.972 0.492317C81.7575 0.656417 81.4365 0.820516 80.6867 0.820516H65.238C64.4888 0.820516 64.1672 0.656417 63.9534 0.492317C63.7749 0.328218 63.7036 0.164118 63.4898 0.164118C63.1682 0.164118 63.1329 0.697142 63.0975 0.943291L61.9548 7.67257C61.8123 8.45234 61.5979 9.43694 61.5979 9.92983C61.5979 10.0939 61.6691 10.258 61.9195 10.258C62.1339 10.258 62.3118 9.72381 62.7046 8.78054C64.0965 5.45243 67.2012 1.79972 70.8054 1.79972L70.8413 25.6852C70.8413 28.4204 67.3084 27.1213 67.3084 28.1377C67.3084 28.6216 67.6654 28.7025 68.2361 28.7025C69.9136 28.7025 70.8413 28.6396 72.9806 28.6396C75.1193 28.6396 76.0476 28.7025 77.7245 28.7025C78.2959 28.7025 78.6528 28.6216 78.6528 28.1377C78.6528 27.1213 75.1193 28.4204 75.1193 25.6852V1.79972C78.7241 1.79972 81.8288 5.45243 83.2207 8.77635C83.6129 9.72082 83.792 10.2538 84.0058 10.2538ZM62.8429 1.18876C62.8429 0.820437 62.6291 0.738387 62.0578 0.738387C60.7725 0.738387 59.8089 0.815047 58.3128 0.815047C56.8156 0.815047 55.8519 0.738387 54.5667 0.738387C53.9953 0.738387 53.7815 0.820437 53.7815 1.18876C53.7815 1.76251 54.2097 1.59841 55.138 1.92661C56.4945 2.41831 57.8151 4.09883 57.8151 7.58385V21.5718H57.7439L44.2853 0.820437H40.9704C39.8283 0.820437 39.115 0.738387 38.2579 0.738387C37.7225 0.738387 37.4728 0.861162 37.4728 1.31214C37.4728 2.09071 39.4001 0.901888 41.4699 4.30306V21.8593C41.4699 25.3455 40.1499 27.0278 38.7934 27.5195C38.7694 27.5285 38.7628 27.5261 38.7401 27.5339C39.4546 27.8328 40.1098 27.6639 40.1098 28.2197C40.1098 28.573 39.9295 28.6515 39.6911 28.6784C40.3787 28.6563 41.0836 28.6329 41.9675 28.6329C43.4642 28.6329 44.4284 28.7096 45.7131 28.7096C46.285 28.7096 46.4989 28.6275 46.4989 28.2586C46.4989 27.6836 46.07 27.8483 45.1423 27.5195C43.7852 27.0278 42.4646 25.3455 42.4646 21.8593V5.73743H42.5359L57.6726 28.8737C57.8505 29.1605 58.1349 29.2839 58.3835 29.2839C58.668 29.2839 58.8099 28.9964 58.8099 28.7096V7.58385C58.8099 4.09883 60.1311 2.41831 61.487 1.92661C62.4147 1.59841 62.8429 1.76251 62.8429 1.18876ZM38.74 27.534C38.2926 27.3471 37.8261 27.0183 37.4685 26.0852L29.869 6.7688C27.7633 1.35352 27.7633 0 27.2997 0C26.8356 0 27.0147 0.574348 26.2648 2.37944C25.2653 4.79901 24.6592 4.71696 24.6592 5.33263C24.6592 5.82493 25.5156 6.6047 25.5156 6.89158C25.5156 7.21978 24.9089 8.7374 20.6274 21.0389C19.6637 23.8298 18.4863 26.0044 17.5586 26.9075C16.5596 27.8915 15.1678 27.4819 15.1678 28.2197C15.1678 28.5479 15.275 28.7114 15.6319 28.7114C16.9166 28.7114 18.0581 28.6306 19.2361 28.6306C21.6617 28.6306 22.5187 28.7114 23.2679 28.7114C23.6602 28.7114 23.8381 28.7114 23.8381 28.261C23.8381 27.277 20.8771 28.261 20.8771 24.1586C20.8771 22.9679 21.3413 21.7779 22.3043 18.6187H30.2254L32.2593 23.9531C32.509 24.5682 32.8659 25.7995 32.8659 26.1691C32.8659 28.3838 30.3685 27.195 30.3685 28.2197C30.3685 28.5886 30.5829 28.7114 30.9393 28.7114C32.4018 28.7114 33.7936 28.6306 35.2214 28.6306C36.1617 28.6306 37.1026 28.6599 38.0435 28.6839C37.644 28.6593 37.4374 28.5731 37.4374 28.2586C37.4374 27.6987 37.8614 27.8298 38.74 27.534ZM29.8692 17.6389H22.6608L26.0152 7.54799L29.8692 17.6389ZM39.6912 28.6784C39.3953 28.6874 39.0863 28.6928 38.7797 28.6976C39.021 28.7018 39.2618 28.7114 39.5031 28.7114C39.5798 28.7114 39.6259 28.6862 39.6912 28.6784ZM38.7796 28.6977C38.5341 28.6941 38.2885 28.6899 38.0436 28.6839C38.1125 28.6881 38.1382 28.7097 38.2227 28.7097C38.4221 28.7097 38.5922 28.7007 38.7796 28.6977ZM3.13646 5.57461C3.13646 2.98974 4.74271 1.14332 7.45694 1.14332C11.4912 1.14332 13.4184 5.12304 14.633 9.80047C14.739 10.252 14.8097 10.7851 15.0942 10.7851C15.3068 10.7851 15.4846 10.621 15.4846 10.2107C15.4846 9.68129 15.3427 6.85027 14.8815 1.10739C14.8456 0.656417 14.7743 0.492317 14.5258 0.492317C13.8466 0.492317 14.3114 1.80511 13.2759 1.80511C11.884 1.79972 10.6695 0.164118 7.49228 0.164118C3.42213 0.164118 0 3.76952 0 8.0361C0 18.1294 13.2406 14.7648 13.2406 23.053C13.2406 25.8427 11.6343 28.3042 8.06363 28.3042C3.35146 28.3042 1.45953 23.135 0.852239 18.0881C0.746233 17.1855 0.674964 16.8573 0.355748 16.8573C0.177874 16.8573 0 16.9807 0 17.3496V28.6312C0 29.039 0.177874 29.1205 0.319814 29.1205C0.995377 29.1205 0.461754 27.7298 1.92368 27.7298C2.85138 27.7298 5.2434 29.284 7.84982 29.284C13.6682 29.284 16.377 24.8988 16.377 20.5496C16.377 10.5796 3.13646 13.1238 3.13646 5.57461Z" fill="url(#paint0_linear)"/>
<defs>
<linearGradient id="paint0_linear" x1="52.4777" y1="0" x2="52.4777" y2="29.284" gradientUnits="userSpaceOnUse">
<stop stop-color="#3E90B5"/>
<stop offset="1" stop-color="#3AA4D4"/>
</linearGradient>
</defs>
</svg>
