<svg width="123" height="40" viewBox="0 0 123 40" fill="none" xmlns="http://www.w3.org/2000/svg">
<path d="M6.26248 7.05188C1.0634 11.9539 -5.58429 29.0152 8.15613 37.408C23.0576 44.8198 34.0897 33.4067 34.0897 33.4067L34.8325 32.5155L27.1081 26.2766C27.1081 26.2766 22.9488 30.2873 18.1954 29.9902C13.442 29.6931 10.7681 26.5737 11.5109 20.0615C12.2536 13.5492 17.8983 10.8279 17.8983 10.8279C27.5537 6.81718 30.6732 14.393 30.6732 14.393L39.7344 9.63954C35.2781 -0.164437 25.9197 0.132654 25.9197 0.132654C15.0635 -0.916669 8.93629 4.52662 6.26248 7.05188Z" fill="white"/>
<path d="M76.2945 38.9026H86.8234L92.4681 17.0665L102.569 38.9026H112.373L122.474 0.726562H111.63L105.689 20.9287L96.4788 0.726562H85.7836L76.2945 38.9026Z" fill="white"/>
<path d="M67.9582 19.8146C68.7253 19.5769 76.7224 17.6607 76.2767 9.63927C75.8311 1.61783 67.884 0.726562 67.2155 0.726562C63.799 0.731316 46.1221 0.726562 46.1221 0.726562L36.3181 38.9026H61.7193C61.7193 38.9026 72.7117 37.7143 73.6029 29.3958C74.4942 21.0772 68.8507 20.3405 67.9582 19.8146ZM58.2285 31.0298C57.4858 31.0298 49.0187 31.0298 49.0187 31.0298L51.5565 22.2656H59.4169C59.4169 22.2656 62.9077 22.4141 62.9077 26.2763C62.9077 30.1385 58.9712 31.0298 58.2285 31.0298ZM61.7104 16.1752C61.0105 16.1752 53.0366 16.1752 53.0366 16.1752L54.995 8.83237H62.8293C62.8293 8.83237 66.1169 8.95655 66.1169 12.1925C66.1169 15.4284 62.4098 16.1752 61.7104 16.1752Z" fill="white"/>
</svg>
