<svg width="156" height="106" viewBox="0 0 156 106" fill="none" xmlns="http://www.w3.org/2000/svg">
<path d="M141.719 62.3739C139.447 65.7101 136.014 67.3058 131.372 67.3058C123.104 67.3058 118.269 61.7937 118.269 54.5409C118.269 47.3848 123.539 41.8727 131.42 41.8727C134.998 41.8727 138.625 42.9364 141.236 46.4178C141.864 47.3364 141.623 48.1101 140.752 48.787L138.576 50.2859C137.706 50.9145 136.981 50.7694 136.159 49.9474C135.143 49.0771 134.031 48.5936 132.146 48.5936C128.277 48.5936 126.537 51.2046 126.537 54.5409C126.537 57.8772 128.422 60.5849 132.291 60.5849C134.225 60.5849 135.53 59.9563 136.546 58.9409C137.319 58.2156 138.093 58.0222 139.012 58.6991L141.236 60.198C142.058 60.7299 142.299 61.5519 141.719 62.3739ZM104.392 67.2574C99.7015 67.2574 96.6553 66.3387 93.8993 64.5014C93.0289 63.8728 92.8839 62.9541 93.5125 62.0838L94.8179 60.2464C95.4465 59.3277 96.2202 59.1826 97.2355 59.7145C99.0246 60.6816 100.91 61.1167 103.521 61.1167C105.504 61.1167 106.906 60.7783 106.906 59.5211C106.906 58.3607 106.036 57.9255 102.748 57.5387C96.5103 56.7167 93.9476 54.2508 93.9476 49.9958C93.9476 45.0639 98.396 42.1628 104.488 42.1628C108.115 42.1628 110.726 43.0331 113.192 44.7254C114.062 45.354 114.207 46.2727 113.578 47.143L112.37 48.787C111.693 49.7057 110.919 49.754 109.904 49.2705C108.308 48.4002 106.713 48.1584 104.924 48.1584C102.844 48.1584 101.781 48.5936 101.732 49.6573C101.684 50.8178 102.699 51.0595 106.036 51.6398C111.983 52.6552 114.787 54.6859 114.787 59.6662C114.739 64.0662 110.774 67.2574 104.392 67.2574ZM89.2091 65.0332C89.2091 66.097 88.5322 66.7255 87.4201 66.7255H82.6816C81.5212 66.7255 80.8926 66.097 80.8926 65.0332V52.9453C80.8926 49.9958 79.4904 48.5452 76.9761 48.5452C73.7849 48.5452 71.6091 50.7211 71.6091 55.5079V65.0332C71.6091 66.097 70.9321 66.7255 69.82 66.7255H65.0816C63.9695 66.7255 63.2925 66.097 63.2925 65.0332V44.0969C63.2925 42.9848 63.9695 42.4046 65.0816 42.4046H68.6112C69.675 42.4046 70.4003 42.7914 70.5937 43.7584C70.7387 44.3386 70.8838 44.9189 70.9321 45.5474C72.9146 43.2265 75.719 41.8727 79.2487 41.8727C85.6795 41.8727 89.1608 45.8375 89.1608 53.2837V65.0332H89.2091Z" fill="white"/>
<path d="M32.0573 40.2287V62.5189C32.0573 64.9365 33.7012 67.1124 36.1188 67.886L144.185 101.732C147.957 102.941 151.873 100.185 151.873 96.3652V10.8791C151.873 7.49451 148.779 4.88351 145.249 5.27032" stroke="white" stroke-width="7" stroke-miterlimit="10" stroke-linecap="round"/>
<path d="M36.3605 34.4749C34.7165 33.3628 33.4594 31.8155 32.5407 29.7847C31.622 27.7539 31.1868 25.5298 31.1868 23.0155V3.578C31.1868 2.51426 31.5253 1.69228 32.2022 1.01535C32.8791 0.338428 33.7011 -3.05176e-05 34.7649 -3.05176e-05C35.8286 -3.05176e-05 36.6506 0.338428 37.3275 1.01535C38.0044 1.69228 38.3429 2.51426 38.3429 3.578V23.0155C38.3429 24.7561 38.6814 26.2067 39.3583 27.3671C40.0352 28.4792 40.8572 29.0594 41.9209 29.0594H43.71C44.677 29.0594 45.4506 29.3979 46.0308 30.0748C46.6111 30.7518 46.9012 31.5737 46.9012 32.6375C46.9012 33.7012 46.466 34.5232 45.5473 35.2001C44.6286 35.8771 43.4682 36.2155 42.066 36.2155H41.9209C39.8418 36.1188 38.0044 35.5869 36.3605 34.4749Z" fill="white"/>
<path d="M22.677 25.7716C23.6924 25.7232 24.5627 26.0617 25.288 26.7869C26.0133 27.4639 26.4001 28.3342 26.4001 29.3496C26.4485 30.365 26.11 31.2353 25.3847 31.9606C23.9825 33.4595 22.3869 34.5716 20.5012 35.3452C18.6638 36.1188 16.7297 36.554 14.699 36.554C10.6374 36.554 7.15607 35.1035 4.30331 32.2507C1.4022 29.3496 0 25.9166 0 21.855C0 17.7935 1.45055 14.3122 4.30331 11.411C7.20442 8.50993 10.6374 7.10773 14.699 7.10773C16.7297 7.10773 18.6638 7.49454 20.5012 8.31652C20.5495 8.36488 20.6462 8.36487 20.7429 8.41323C22.4836 9.18686 24.0309 10.299 25.3847 11.7012C26.0617 12.4264 26.4001 13.2968 26.4001 14.3122C26.4001 15.3275 26.0133 16.1495 25.288 16.8748C24.5627 17.5517 23.6924 17.8902 22.677 17.8902C21.6616 17.8418 20.8396 17.455 20.1144 16.7297C19.4374 16.0528 18.6155 15.4726 17.6484 15.0374C16.7297 14.6506 15.7627 14.4089 14.7473 14.4089C12.7165 14.4089 10.9759 15.1341 9.52531 16.5847C8.07475 18.0353 7.34947 19.7759 7.34947 21.855C7.34947 23.8858 8.07475 25.6748 9.52531 27.1254C10.9759 28.576 12.7165 29.3012 14.7473 29.3012C15.7627 29.3012 16.7781 29.1078 17.6968 28.721C18.6155 28.3342 19.4374 27.754 20.1627 26.9803C20.8396 26.1584 21.6616 25.7716 22.677 25.7716Z" fill="white"/>
<path d="M69.4333 10.6858C69.4333 9.67037 69.7718 8.84839 70.4971 8.12311C71.2224 7.39783 72.0927 7.01102 73.1081 7.01102C74.1235 7.01102 74.9455 7.39783 75.6707 8.12311C76.396 8.84839 76.7828 9.67037 76.7828 10.6858V21.8067C76.7828 25.8682 75.3323 29.3496 72.4795 32.2023C69.5784 35.1034 66.0971 36.5056 62.0355 36.5056C57.974 36.5056 54.4926 35.0551 51.6399 32.2023C48.7387 29.3012 47.3365 25.8682 47.3365 21.8067V10.6858C47.3365 9.67037 47.675 8.84839 48.4003 8.12311C49.1256 7.39783 49.9959 7.01102 51.0113 7.01102C52.0267 7.01102 52.897 7.39783 53.6223 8.12311C54.3476 8.84839 54.686 9.67037 54.686 10.6858V21.8067C54.686 23.8375 55.4113 25.6265 56.8619 27.077C58.3124 28.5276 60.0531 29.2529 62.0839 29.2529C64.1146 29.2529 65.9037 28.5276 67.3542 27.077C68.8048 25.6265 69.5301 23.8858 69.5301 21.8067V10.6858H69.4333Z" fill="white"/>
<path d="M80.4574 3.67471C80.4574 2.65932 80.7959 1.78899 81.5212 1.06371C82.2464 0.338431 83.1168 -3.05176e-05 84.1322 -3.05176e-05C85.1476 -3.05176e-05 86.0179 0.338431 86.7432 1.06371C87.4684 1.78899 87.8069 2.65932 87.8069 3.67471V8.65495C90.0794 7.3011 92.5454 6.67253 95.2047 6.67253C99.2663 6.67253 102.748 8.12308 105.649 10.9758C108.55 13.877 109.952 17.3099 109.952 21.4198C109.952 25.4814 108.502 28.9627 105.649 31.8155C102.748 34.7166 99.2663 36.1188 95.2047 36.1188C91.1432 36.1188 87.6619 34.6683 84.8091 31.8155C81.908 28.9144 80.5058 25.4814 80.5058 21.4198V3.67471H80.4574ZM95.1564 28.8177C97.1872 28.8177 98.9762 28.0924 100.427 26.6418C101.877 25.1913 102.603 23.4506 102.603 21.3715C102.603 19.3407 101.877 17.5517 100.427 16.1011C98.9762 14.6506 97.2355 13.9253 95.1564 13.9253C93.1256 13.9253 91.3366 14.6506 89.9344 16.1011C88.4838 17.5517 87.7586 19.2924 87.7586 21.3715C87.7586 23.4023 88.4838 25.1913 89.9344 26.6418C91.385 28.0924 93.1256 28.8177 95.1564 28.8177Z" fill="white"/>
<path d="M134.708 26.5935C135.772 26.6418 136.642 27.077 137.271 27.8506C137.899 28.6243 138.141 29.4462 137.996 30.4133C137.851 31.332 137.416 32.1056 136.594 32.7342C135.289 33.7979 133.838 34.6682 132.194 35.2485C130.55 35.8287 128.906 36.1188 127.214 36.1188C123.152 36.1188 119.671 34.6682 116.818 31.8155C113.917 28.9144 112.515 25.4814 112.515 21.4198C112.515 17.3583 113.965 13.8769 116.818 10.9758C119.719 8.07472 123.152 6.67252 127.214 6.67252C131.275 6.67252 134.757 8.12307 137.658 10.9758C140.559 13.8769 141.961 17.3099 141.961 21.4198C141.961 23.3056 140.752 24.2242 138.286 24.2242H120.396C120.735 25.6264 121.46 26.7869 122.475 27.6572C123.732 28.6726 125.28 29.2045 127.214 29.2045C129.003 29.2045 130.598 28.6243 131.952 27.5122C132.726 26.8352 133.645 26.5451 134.708 26.5935ZM133.693 18.5671C132.387 15.2308 130.212 13.5868 127.214 13.5868C123.877 13.5868 121.557 15.2308 120.299 18.5671H133.693Z" fill="white"/>
</svg>
