<svg width="106" height="47" viewBox="0 0 106 47" fill="none" xmlns="http://www.w3.org/2000/svg">
<mask id="mask0" mask-type="alpha" maskUnits="userSpaceOnUse" x="87" y="0" width="19" height="47">
<path fill-rule="evenodd" clip-rule="evenodd" d="M105.495 0.127045V46.3331H87.9232V0.127045H105.495V0.127045Z" fill="white"/>
</mask>
<g mask="url(#mask0)">
<path fill-rule="evenodd" clip-rule="evenodd" d="M96.6554 28.8406C101.517 28.8406 105.496 32.8009 105.496 37.642C105.496 42.4824 101.517 46.3334 96.6554 46.3334C91.7912 46.3334 87.9232 42.4824 87.9232 37.642C87.9232 32.8009 91.7912 28.8406 96.6554 28.8406ZM87.9232 8.92775C87.9232 4.08814 91.7912 0.127045 96.6554 0.127045C101.517 0.127045 105.496 4.08814 105.496 8.92775C105.496 13.7688 101.517 17.6191 96.6554 17.6191C91.7912 17.6191 87.9232 13.7688 87.9232 8.92775Z" fill="white"/>
</g>
<path fill-rule="evenodd" clip-rule="evenodd" d="M16.3364 35.9764C23.6612 35.9764 28.9767 30.2339 28.9767 22.8769C28.9767 15.5858 23.6612 9.84251 16.3364 9.84251H10.113V35.9764H16.3364ZM3.05176e-05 1.58333C3.05176e-05 0.937558 0.518144 0.357544 1.1669 0.357544H16.985C29.4946 0.357544 39.7382 10.4882 39.7382 22.8769C39.7382 35.3956 29.4946 45.5263 16.985 45.5263H1.1669C0.518144 45.5263 3.05176e-05 44.9455 3.05176e-05 44.2997V1.58333Z" fill="white"/>
<path fill-rule="evenodd" clip-rule="evenodd" d="M66.8736 -3.05176e-05C73.356 -3.05176e-05 78.1534 2.0001 82.5618 6.00109C83.1445 6.51682 83.1445 7.29116 82.6249 7.80763L77.5699 13.0337C77.1149 13.4859 76.4016 13.4859 75.9488 13.0337C73.5497 10.905 70.3735 9.74347 67.198 9.74347C59.8717 9.74347 54.4909 15.8089 54.4909 23.0358C54.4909 30.1991 59.9363 36.1352 67.2618 36.1352C70.3089 36.1352 73.615 35.038 75.9488 33.0379C76.4016 32.6507 77.2455 32.6507 77.6338 33.1022L82.6902 38.4575C83.1445 38.9097 83.0799 39.7483 82.6249 40.1998C78.2172 44.4586 72.6427 46.4595 66.8736 46.4595C53.9074 46.4595 43.4717 36.1995 43.4717 23.2944C43.4717 10.3885 53.9074 -3.05176e-05 66.8736 -3.05176e-05Z" fill="white"/>
</svg>
