<svg width="184" height="40" viewBox="0 0 184 40" fill="none" xmlns="http://www.w3.org/2000/svg">
<path fill-rule="evenodd" clip-rule="evenodd" d="M68.1012 22.8435H39.14C39.3787 28.8086 43.26 32.5193 49.3118 32.5193C51.6842 32.5193 54.0327 32.0027 56.2277 31.024C59.3636 29.6255 62.7096 30.3914 64.4739 32.7368C59.9931 36.8837 54.0913 39.2848 47.4635 39.2848C35.6487 39.2848 29.2735 31.3542 31.3372 19.715C33.4143 8.00284 42.8173 0.0736113 54.2127 0.000671387C67.6851 0.000671387 71.5865 8.87613 68.1012 22.8435ZM61.9773 16.7323C62.7988 10.476 59.3628 6.69374 53.0957 6.69374C47.0439 6.69374 42.109 10.5489 40.076 16.7323H61.9773Z" fill="white"/>
<path fill-rule="evenodd" clip-rule="evenodd" d="M121.671 4.26567L121.587 4.3944C119.533 7.4924 115.731 8.93795 112.623 7.91339C110.846 7.3282 109.024 7.00376 107.357 7.00376C104.165 7.00376 101.634 8.08415 101.151 10.8229C99.9063 17.8845 120.654 14.0647 118.131 27.9712C116.747 35.8256 109.244 39.3564 101.655 39.3564C96.1222 39.3564 90.5642 37.4826 87.4143 34.024C89.3372 31.148 92.9788 29.8857 95.6994 31.1539C98.0621 32.2553 100.747 32.8714 103.152 32.8714C106.628 32.8714 109.54 31.6465 110.048 28.7639C111.432 20.9103 90.7953 25.3054 93.3051 11.4711C94.6766 3.68969 101.928 0.374298 109.164 0.374298C113.916 0.374298 118.699 1.81591 121.671 4.26567Z" fill="white"/>
<path fill-rule="evenodd" clip-rule="evenodd" d="M144.924 34.2645C141.58 37.6834 136.889 39.3564 131.341 39.3564C123.057 39.3564 118.785 34.1916 119.998 27.3531C121.249 20.2972 127.308 15.7862 136.542 15.7139H148.142L148.348 14.5495C149.212 9.67515 146.63 6.76551 140.578 6.76551C138.574 6.76551 136.458 7.1554 134.254 7.93453C130.817 9.14865 127.417 7.83971 126.217 4.87437C132.116 1.67364 136.303 0 143.579 0C153.449 0 158.094 5.09253 156.656 13.604L152.227 38.993H148.84C146.214 38.993 144.461 36.8758 144.924 34.2645ZM146.428 25.3887L147.061 21.8239H136.686C131.282 21.8239 128.503 23.2787 127.846 26.9894C127.226 30.4805 129.636 32.7364 134.247 32.7364C140.155 32.7364 145.248 29.6086 146.428 25.3887Z" fill="white"/>
<path fill-rule="evenodd" clip-rule="evenodd" d="M168.476 8.37436C171.986 3.13799 177.068 0.374298 183.098 0.374298C182.41 4.26627 179.428 7.82348 175.539 9.20963C171.077 10.8 167.858 14.4606 166.574 19.1381L164.457 31.1196C163.653 35.6686 159.306 39.3564 154.747 39.3564L160.128 8.90204C160.933 4.35312 165.28 0.665318 169.839 0.665318L168.476 8.37436Z" fill="white"/>
<path fill-rule="evenodd" clip-rule="evenodd" d="M81.0622 8.37436C84.5713 3.13799 89.6536 0.374298 95.6832 0.374298C94.9956 4.26627 92.014 7.82348 88.1242 9.20963C83.6624 10.8 80.443 14.4606 79.1601 19.1381L77.0428 31.1196C76.2389 35.6686 71.8914 39.3564 67.3326 39.3564L72.7139 8.90204C73.5178 4.35312 77.8653 0.665318 82.4247 0.665318L81.0622 8.37436Z" fill="white"/>
<path fill-rule="evenodd" clip-rule="evenodd" d="M6.96666 33.6487L0 0.374298C5.13406 0.374298 9.13258 3.55685 9.96456 8.30608L13.7905 30.1462L25.7953 7.51594C28.1226 3.12811 32.752 0.374298 37.8008 0.374298L18.2513 34.9323C17.1197 36.9335 14.9683 38.1751 12.6325 38.1751C9.88586 38.1751 7.51823 36.2833 6.96666 33.6487Z" fill="white"/>
</svg>
