<svg width="95" height="43" viewBox="0 0 95 43" fill="none" xmlns="http://www.w3.org/2000/svg">
<mask id="mask0" mask-type="alpha" maskUnits="userSpaceOnUse" x="0" y="0" width="49" height="43">
<path fill-rule="evenodd" clip-rule="evenodd" d="M48.2229 43H0V0H48.2229V43Z" fill="white"/>
</mask>
<g mask="url(#mask0)">
<path fill-rule="evenodd" clip-rule="evenodd" d="M43.2901 21.1702C42.2332 22.9445 40.6039 23.7849 38.3576 23.7849C34.4382 23.7849 32.1482 20.8901 32.1482 17.0615C32.1482 13.2797 34.6586 10.3849 38.4019 10.3849C40.1192 10.3849 41.837 10.9452 43.0701 12.766C43.3782 13.2329 43.2462 13.6533 42.8497 14.0268L41.7928 14.7738C41.3523 15.1473 41.0441 15.0539 40.6477 14.6336C40.1635 14.1666 39.6349 13.9334 38.7542 13.9334C36.9046 13.9334 36.0679 15.2873 36.0679 17.0615C36.0679 18.7889 36.9484 20.2364 38.798 20.2364C39.7231 20.2364 40.3396 19.9094 40.8239 19.3492C41.1762 18.9757 41.5727 18.8822 41.9689 19.2092L43.0259 20.0029C43.4662 20.3299 43.5986 20.7499 43.2901 21.1702ZM25.5421 23.7381C23.2962 23.7381 21.8431 23.2712 20.5219 22.2908C20.1254 21.9639 20.0815 21.4503 20.3457 21.03L20.9623 20.0497C21.2703 19.5828 21.6227 19.4893 22.1074 19.7695C22.9439 20.283 23.8689 20.5166 25.1017 20.5166C26.0706 20.5166 26.7313 20.3299 26.7313 19.6761C26.7313 19.0224 26.2909 18.8357 24.7497 18.6021C21.755 18.1821 20.5219 16.9213 20.5219 14.6336C20.5219 12.0658 22.6797 10.5249 25.5421 10.5249C27.2599 10.5249 28.5368 10.9918 29.6819 11.8791C30.1223 12.2525 30.1664 12.7194 29.8581 13.1863L29.2856 14.0268C28.9772 14.4937 28.6249 14.5402 28.1406 14.3069C27.3479 13.84 26.5991 13.6998 25.7625 13.6998C24.7935 13.6998 24.2651 13.9334 24.2651 14.4937C24.2212 15.1005 24.7055 15.2407 26.2909 15.5208C29.1534 16.0811 30.4746 17.108 30.4746 19.7695C30.4746 22.1041 28.581 23.7381 25.5421 23.7381ZM18.3207 22.571C18.3207 23.1313 17.9685 23.5048 17.44 23.5048H15.1938C14.6653 23.5048 14.3572 23.1313 14.3572 22.571V16.2211C14.3572 14.6804 13.6964 13.9334 12.5075 13.9334C10.9662 13.9334 9.95312 15.0539 9.95312 17.575V22.571C9.95312 23.1313 9.64509 23.5048 9.11654 23.5048H6.82655C6.29799 23.5048 5.98962 23.1313 5.98962 22.571V11.5989C5.98962 10.9918 6.29799 10.6651 6.82655 10.6651H8.50006C9.02844 10.6651 9.38081 10.8984 9.46891 11.4121C9.55691 11.6923 9.60092 12.0189 9.64509 12.2991C10.5698 11.132 11.8909 10.3849 13.5644 10.3849C16.6472 10.3849 18.3207 12.4393 18.3207 16.3609V22.571ZM45.5805 0.0196735L2.06972 5.8558C0.880763 6.04259 -8.01086e-05 7.06976 -8.01086e-05 8.33054V25.4658C-8.01086e-05 26.5395 0.660401 27.5201 1.62934 27.8469L45.1401 42.8809C46.6374 43.3946 48.2228 42.1807 48.2228 40.4998V2.49441C48.2228 1.00037 46.9898 -0.167116 45.5805 0.0196735Z" fill="#FF6915"/>
</g>
<path fill-rule="evenodd" clip-rule="evenodd" d="M57.7065 24.2456C58.6319 24.2456 59.4176 24.0225 60.0112 23.6692V20.8989C59.6096 21.1034 59.1906 21.2336 58.7541 21.2336C58.143 21.2336 57.8462 20.9361 57.8462 20.2296V16.8271H60.0461V13.9825H57.8462V11.4353H54.5288V13.9825H53.4114V16.8271H54.5288V20.9175C54.5288 23.3159 55.7161 24.2456 57.7065 24.2456ZM66.2969 24.2827C63.2763 24.2827 61.0938 21.9215 61.0938 19.0582V19.021C61.0938 16.1578 63.2938 13.7593 66.3318 13.7593C69.3524 13.7593 71.5348 16.1206 71.5348 18.9839V19.021C71.5348 21.8843 69.3349 24.2827 66.2969 24.2827ZM66.3312 21.2894C67.5359 21.2894 68.3042 20.2668 68.3042 19.0583V19.0211C68.3042 17.794 67.4661 16.7528 66.2963 16.7528C65.0915 16.7528 64.3233 17.7754 64.3233 18.9839V19.0211C64.3233 20.2482 65.1614 21.2894 66.3312 21.2894ZM76.6859 24.2456C77.6113 24.2456 78.397 24.0225 78.9906 23.6692V20.8989C78.5891 21.1034 78.17 21.2336 77.7335 21.2336C77.1224 21.2336 76.8256 20.9361 76.8256 20.2296V16.8271H79.0256V13.9825H76.8256V11.4353H73.5082V13.9825H72.3908V16.8271H73.5082V20.9175C73.5082 23.3159 74.6955 24.2456 76.6859 24.2456ZM83.163 24.2642C81.3646 24.2642 79.9853 23.1672 79.9853 21.1592V21.122C79.9853 19.0397 81.4694 17.9613 83.6868 17.9613C84.5598 17.9613 85.4153 18.1472 85.9566 18.3517V18.1844C85.9566 17.1432 85.3455 16.5483 84.0709 16.5483C83.0757 16.5483 82.3075 16.7528 81.4694 17.106L80.7885 14.6146C81.8535 14.1498 82.9884 13.8337 84.6122 13.8337C86.3058 13.8337 87.4581 14.2614 88.2089 15.0608C88.9248 15.8046 89.2216 16.8457 89.2216 18.2588V24.2244H85.9391V22.9999C85.2931 23.7622 84.4026 24.2642 83.163 24.2642ZM84.3497 22.0516C85.3099 22.0516 85.9909 21.4009 85.9909 20.3969V19.9321C85.6591 19.7833 85.1877 19.6718 84.6989 19.6718C83.7386 19.6718 83.1798 20.1738 83.1798 20.9175V20.9547C83.1798 21.6426 83.6687 22.0516 84.3497 22.0516ZM90.9852 24.2244H94.3026V10.8352H90.9852V24.2244Z" fill="#FF6915"/>
</svg>
